HIERARCHY
ROOT Hips
{
  OFFSET 0 0 0
  CHANNELS 6 Xposition Yposition Zposition Zrotation Yrotation Xrotation
  JOINT LeftThigh
  {
    OFFSET 8.409438 0 -5.917753
    CHANNELS 3 Zrotation Yrotation Xrotation
    JOINT LeftLeg
    {
      OFFSET 0 0 -42.358652
      CHANNELS 3 Zrotation Yrotation Xrotation
      JOINT LeftFoot
      {
        OFFSET 0 0 -39.357303
        CHANNELS 3 Zrotation Yrotation Xrotation
      }
    }
  }
  JOINT RightThigh
  {
    OFFSET -8.409438 0 -5.917753
    CHANNELS 3 Zrotation Yrotation Xrotation
    JOINT RightLeg
    {
      OFFSET 0 0 -42.358652
      CHANNELS 3 Zrotation Yrotation Xrotation
      JOINT RightFoot
      {
        OFFSET 0 0 -39.357303
        CHANNELS 3 Zrotation Yrotation Xrotation
      }
    }
  }
  JOINT SpineLow
  {
    OFFSET 0 0 4.719101
    CHANNELS 3 Zrotation Yrotation Xrotation
    JOINT SpineMid
    {
      OFFSET 0 0 12.899191
      CHANNELS 3 Zrotation Yrotation Xrotation
      JOINT Chest
      {
        OFFSET 0 0 12.899191
        CHANNELS 3 Zrotation Yrotation Xrotation
        JOINT LeftShoulder
        {
          OFFSET 7.550562 1.41573 9.438202
          CHANNELS 3 Zrotation Yrotation Xrotation
          JOINT LeftArm
          {
            OFFSET 9.155056 0 4.247191
            CHANNELS 3 Zrotation Yrotation Xrotation
            JOINT LeftForearm
            {
              OFFSET 0 0 25.771955
              CHANNELS 3 Zrotation Yrotation Xrotation
              JOINT LeftHand
              {
                OFFSET 0 0 25.197169
                CHANNELS 3 Zrotation Yrotation Xrotation
              }
            }
          }
        }
        JOINT RightShoulder
        {
          OFFSET -7.550562 1.41573 9.438202
          CHANNELS 3 Zrotation Yrotation Xrotation
          JOINT RightArm
          {
            OFFSET -9.155056 0 4.247191
            CHANNELS 3 Zrotation Yrotation Xrotation
            JOINT RightForearm
            {
              OFFSET 0 0 -25.771955
              CHANNELS 3 Zrotation Yrotation Xrotation
              JOINT RightHand
              {
                OFFSET 0 0 -25.197169
                CHANNELS 3 Zrotation Yrotation Xrotation
              }
            }
          }
        }
        JOINT Neck
        {
          OFFSET 0 0 15.101124
          CHANNELS 3 Zrotation Yrotation Xrotation
          JOINT Head
          {
            OFFSET 0 0 11.325843
            CHANNELS 3 Zrotation Yrotation Xrotation
            End Site
            {
              OFFSET 0 0 14.157303
            }
          }
        }
      }
    }
  }
}
MOTION
Frames: 14
Frame Time: 0.0
0.0  93.25843  0.0  72.739966  -46.801683  -152.398286  -15.504226  -62.71407  -0.563871  10.449133  4.355822  -1.073608  12.356896  -2.671712  -0.4691  -0.644999  27.377903  -29.789366  10.903267  16.932523  26.539893  12.260354  4.682108  2.325828  1.78527  2.674787  2.51035  5.170657  7.111583  7.080858  5.170657  7.111584  7.080859  1.916799  27.820727  13.98004  -176.856277  36.00063  -165.924446  -23.877064  -13.663901  115.922161  71.490819  -34.182172  7.632797  23.880853  -4.902941  23.871456  179.266889  56.884329  124.864504  -1.15121  -29.636756  -126.081113  65.541673  3.431088  -6.950486  16.908186  19.279315  23.147681  11.822829  15.129168  16.656369  
0.0  93.25843  0.0  70.444157  -45.328669  -151.64511  -13.865852  -60.423622  -4.233638  13.98753  2.543893  0.222928  9.671312  -2.811533  0.410904  -2.13767  28.097822  -28.651093  12.085949  16.59553  27.269064  11.753282  4.733011  2.272549  1.409993  2.702432  2.57113  4.152436  7.223801  7.209846  4.152436  7.223801  7.209846  0.538335  28.196801  14.215827  -175.644872  36.318887  -165.467342  -23.859301  -12.76534  115.075  71.532333  -34.409928  8.294035  23.346371  -5.21806  23.417029  178.518691  56.994095  125.278738  0.517867  -29.987618  -127.584953  65.131401  3.381923  -6.96688  16.996771  19.296408  23.481445  11.877446  15.155367  16.900947  
0.0  93.25843  0.0  69.389812  -45.224425  -152.069558  -2.452155  -58.1388  -13.43511  10.888287  0.807487  2.979028  7.489758  -2.572458  0.555402  -0.828743  28.24671  -26.266845  12.649769  16.202447  27.706341  10.87144  5.093561  2.221766  1.307283  2.63965  2.701005  3.877348  7.055866  7.550152  3.877347  7.055866  7.550152  -1.230253  28.868103  13.945929  -174.235136  37.034969  -164.764035  -23.749166  -12.204829  114.217013  72.1428  -34.624164  8.448424  22.797991  -5.458106  22.683946  176.599348  56.910999  123.992569  0.96811  -29.850553  -127.948501  64.867262  3.409242  -7.217214  16.849242  19.258806  23.507006  11.768971  15.122054  16.926336  
0.0  93.25843  0.0  69.132311  -45.488492  -153.600924  14.647999  -55.82813  -27.093906  1.930293  1.377681  8.299675  6.892922  -2.029458  0.453436  2.511074  28.096153  -22.389589  12.423817  16.256766  27.846552  10.049248  5.735982  2.218491  1.3748  2.565436  2.942282  4.077664  6.829986  8.212802  4.077664  6.829986  8.212802  -2.165119  29.256864  13.703153  -174.17503  37.96525  -164.142477  -23.749462  -12.351242  113.351239  73.198277  -34.711679  7.928196  22.303295  -5.585045  22.087781  175.654426  58.211745  124.967742  3.131257  -29.44509  -129.410703  64.632925  3.450695  -7.759527  16.466215  19.18218  23.392422  11.491724  15.046064  16.856618  
0.0  93.25843  0.0  68.016014  -45.914652  -152.573461  30.060829  -49.274566  -40.845919  -9.744326  1.044068  14.522051  7.636484  -1.26552  0.414246  4.614039  27.324373  -20.678398  11.77211  16.75664  27.965477  9.35301  6.043059  2.170855  1.347139  2.439004  2.867654  3.977884  6.493395  7.995703  3.977884  6.493395  7.995703  -2.037896  29.058449  13.9428  -175.227377  38.658548  -163.581846  -23.85668  -13.158966  112.669359  74.309787  -34.742068  6.937941  21.968939  -5.563632  21.970107  174.278987  59.664442  124.851269  4.515276  -28.976258  -129.788811  64.333524  3.551356  -8.358754  16.124179  19.088518  23.386938  11.242486  14.962133  16.867463  
0.0  93.25843  0.0  65.908542  -46.010414  -150.086302  38.245512  -42.134834  -49.337929  -18.938807  1.46272  21.126587  8.020853  -0.732885  0.56227  5.201147  26.455023  -20.262912  10.902241  17.491177  28.143975  9.250054  6.083691  2.121477  1.21901  2.300994  2.700177  3.594153  6.142213  7.514795  3.594153  6.142213  7.514795  -1.784169  28.609621  13.841796  -176.844166  39.279571  -163.466772  -24.05198  -14.302132  112.136646  75.164325  -34.879561  5.844097  21.409152  -5.326766  22.018641  173.588405  61.411407  125.038514  6.306905  -28.761673  -130.114106  64.036708  3.757107  -8.683648  15.723384  19.034214  23.398752  10.946784  14.905936  16.89102  
0.0  93.25843  0.0  64.151569  -46.383858  -148.562175  43.749751  -39.736974  -55.646938  -23.443285  5.054965  27.876759  7.73353  -0.296104  0.64356  6.119278  25.584147  -19.438091  10.244208  17.708404  28.338308  9.198503  5.984233  2.232655  1.110527  2.130221  2.603314  3.268553  5.693765  7.228743  3.268553  5.693764  7.228742  -1.461365  28.629768  13.339426  -178.108855  40.177067  -163.632034  -24.213388  -15.414416  111.669175  75.542196  -35.013748  4.886921  20.977024  -4.916021  22.266779  173.312095  62.70103  124.946794  7.933899  -29.018916  -130.285924  63.765597  4.014811  -8.545078  15.634098  19.123543  23.489527  10.872673  14.971988  16.957108  
0.0  93.25843  0.0  62.810971  -46.79663  -147.845593  46.838343  -39.879184  -59.240272  -24.685639  8.466132  34.380414  7.381191  0.401029  0.652082  7.308576  25.009593  -18.283475  9.792437  17.329876  28.552625  8.806991  5.990663  2.377177  0.903503  1.975573  2.552668  2.680514  5.296701  7.064269  2.680514  5.296702  7.06427  -0.818959  29.185411  12.591959  -178.387829  41.233846  -163.57062  -24.293658  -16.104367  111.176918  75.22723  -34.979659  4.300524  21.125723  -4.741466  22.435334  172.676355  62.738933  123.9354  8.870651  -29.648101  -130.317679  63.450097  4.282587  -8.073338  16.163621  19.419687  23.538068  11.248907  15.216594  16.9629  
0.0  93.25843  0.0  61.619089  -47.003415  -147.277626  47.720733  -40.665645  -61.749044  -24.030299  11.327017  41.898521  7.696203  1.192582  0.674186  7.714662  24.589073  -17.454162  9.698025  16.836099  28.665337  8.360495  5.936514  2.467693  0.761352  1.871404  2.475663  2.274371  5.030478  6.837424  2.274371  5.030479  6.837424  -1.022048  29.73993  12.338487  -177.44823  42.314635  -162.730136  -24.326684  -15.943775  110.556955  74.310972  -34.831079  4.235571  21.018443  -4.703276  22.714597  171.477397  62.393518  122.269951  9.07082  -30.416288  -130.24924  63.041049  4.523332  -7.550879  16.609809  19.508805  23.674634  11.57161  15.305143  17.046186  
0.0  93.25843  0.0  60.471768  -47.037694  -147.059202  46.113146  -42.842529  -62.856021  -20.546205  13.413656  50.466444  8.129565  1.877601  0.714235  7.151123  24.069781  -16.714254  9.907827  16.673018  28.608266  8.590314  5.870305  2.539984  0.693515  1.819892  2.475433  2.083321  4.896931  6.829531  2.083321  4.896931  6.829531  -1.820538  29.89888  12.320954  -176.072699  43.288418  -161.081613  -24.403815  -14.877601  109.429163  73.239357  -34.720939  4.652894  20.550417  -5.032939  22.723053  169.995083  61.726162  120.392475  8.856287  -31.18651  -130.139166  62.547488  4.730665  -7.183683  16.759964  19.369081  23.6628  11.691536  15.20588  17.039537  
0.0  93.25843  0.0  59.227517  -46.885273  -147.086348  43.712496  -45.64551  -62.840643  -15.803671  14.868534  58.973943  8.130344  2.453022  0.665905  5.573067  23.505121  -16.101894  10.470448  16.710547  28.475942  9.100781  5.724751  2.589558  0.597425  1.791091  2.556126  1.823339  4.825896  7.042306  1.823338  4.825896  7.042305  -2.031698  29.798803  12.384943  -175.104161  43.888557  -159.335548  -24.390048  -13.349493  108.236407  72.359896  -34.571454  5.306876  20.293554  -5.35062  22.606412  168.460932  61.135998  118.529843  8.484385  -31.912807  -129.940733  62.054727  4.892021  -7.031721  16.915184  19.204279  23.566929  11.81923  15.0855  16.971521  
0.0  93.25843  0.0  57.863958  -46.743328  -146.951359  42.430048  -48.321977  -63.037516  -11.359618  16.206734  66.797263  7.379685  3.077909  0.553245  3.644209  22.931439  -15.715496  11.086277  16.683792  28.404968  9.259765  5.340138  2.567771  0.465686  1.739878  2.651347  1.464277  4.697883  7.291782  1.464277  4.697883  7.291782  -1.729254  29.68103  12.299753  -174.677824  44.216917  -157.571169  -24.302559  -12.008315  106.89373  71.656512  -34.355551  6.00903  20.299156  -5.456344  22.421932  167.145498  61.174059  117.149891  8.79956  -32.483752  -130.027493  61.665243  5.050362  -7.010933  16.911958  18.991423  23.391315  11.834032  14.920375  16.851379  
0.0  93.25843  0.0  56.65911  -46.694081  -146.647059  42.700546  -50.646259  -64.045496  -7.513345  17.932439  73.999383  6.001126  3.692027  0.463716  2.214089  22.458652  -15.424116  11.680797  16.495243  28.455004  9.695759  5.325297  2.533168  0.326081  1.674432  2.731895  1.080792  4.533202  7.50068  1.080792  4.533202  7.50068  -1.677028  29.573873  11.515952  -174.272789  44.151943  -156.092384  -24.049988  -11.236619  105.642483  71.20184  -34.104491  6.540544  20.518992  -5.283888  22.097383  165.667932  61.759755  115.504376  9.50613  -32.916407  -130.00407  61.442351  5.195087  -7.081376  17.03445  18.958899  23.279344  11.930408  14.897453  16.76597  
0.0  93.25843  0.0  55.740495  -46.904933  -146.093099  43.499299  -51.914208  -64.772263  -4.644166  19.406201  80.674615  4.53209  4.402912  0.068117  1.810139  21.909094  -15.094753  11.966561  16.257198  28.446497  9.315314  5.100463  2.483341  0.204611  1.584252  2.709486  0.736981  4.30116  7.429153  0.736981  4.30116  7.429152  -1.399101  29.53551  10.604991  -174.032539  43.764429  -154.923804  -23.580149  -11.173105  104.540681  70.995083  -33.944268  6.852474  20.876378  -4.936687  21.910362  164.074039  62.928502  113.748524  10.753188  -33.198222  -130.050022  61.303498  5.364531  -7.209875  17.232883  18.967655  23.316155  12.07651  14.912923  16.786921  
